<svg xmlns="http://www.w3.org/2000/svg" viewBox="0 0 63.5 60.22"><defs><style>.cls-1{fill:#fff;}</style></defs><g id="Layer_2" data-name="Layer 2"><g id="TEXTS"><path class="cls-1" d="M0,36a1.31,1.31,0,0,0,.09-.28,3.58,3.58,0,0,1,1.08-2,8.87,8.87,0,0,1,2-1.46,22.47,22.47,0,0,1,4.66-1.9,47.49,47.49,0,0,1,6.77-1.47l1.07-.17c.08-.92.05-1.83.11-2.8A42.16,42.16,0,0,0,4.94,29.19l.45-.3A19.51,19.51,0,0,1,9.17,27a41.91,41.91,0,0,1,6.21-1.78l.41-.1c0-.15,0-.3.05-.45.1-1.25.17-2.5.29-3.75A61.1,61.1,0,0,1,18.64,8.09a23.43,23.43,0,0,1,2-4.63,9.52,9.52,0,0,1,1.59-2.14A4.11,4.11,0,0,1,24.45.06L24.57,0h.59a1,1,0,0,0,.15.07,4,4,0,0,1,2.11,1.16,11.1,11.1,0,0,1,2.09,3,29.9,29.9,0,0,1,2,5.36v.17l-.22-.53A17.56,17.56,0,0,0,29.7,6.09a7.19,7.19,0,0,0-1.46-1.7,6,6,0,0,0-1-.65,2.86,2.86,0,0,0-2.64,0,5.36,5.36,0,0,0-1.8,1.48,12.45,12.45,0,0,0-1.57,2.47,30.26,30.26,0,0,0-2.11,5.75,53.42,53.42,0,0,0-1.39,7c-.19,1.4-.34,2.8-.51,4.2v.27c.71-.08,1.39-.23,2.08-.33l2.09-.29c0-.32.09-.62.13-.92q.29-2.49.81-4.95a33.73,33.73,0,0,1,2.23-7.2,10,10,0,0,1,1.21-2.07s0,.07-.05.1a29,29,0,0,0-2,5.85,48.56,48.56,0,0,0-1.07,5.73c-.13,1-.24,2-.36,3.05a3,3,0,0,0,0,.3l.83-.07c1-.09,2.06-.21,3.09-.27,1.82-.1,3.63-.18,5.44-.23,2.27-.06,4.54,0,6.8.13,2,.1,4,.27,6,.51A61.6,61.6,0,0,1,54.81,26.3a26.6,26.6,0,0,1,4.86,2A10.94,10.94,0,0,1,62.12,30a4.92,4.92,0,0,1,1,1.36,3,3,0,0,1,0,2.76,4.91,4.91,0,0,1-1.08,1.4,11.63,11.63,0,0,1-2.78,1.88,29.82,29.82,0,0,1-5.33,2h-.18l.38-.16a18.2,18.2,0,0,0,3.31-1.71A7.29,7.29,0,0,0,59,36.23a6.12,6.12,0,0,0,.7-1,2.9,2.9,0,0,0,0-2.88,5.06,5.06,0,0,0-1-1.32,12.07,12.07,0,0,0-3-2,31.5,31.5,0,0,0-6.31-2.21,62.54,62.54,0,0,0-7.2-1.35c-1.83-.23-3.67-.4-5.51-.53-2.89-.2-5.79-.24-8.68-.16-1.86,0-3.72.2-5.57.31l-.23,0c-.12,1-.13,2-.19,3a1,1,0,0,0,.23,0c2.6-.14,5.21-.14,7.82,0A69.06,69.06,0,0,1,41.85,29.6a32.91,32.91,0,0,1,6.35,2,13.72,13.72,0,0,1,2.26,1.23,1.22,1.22,0,0,1,.3.26l-.12,0a28.82,28.82,0,0,0-6.5-2.27,56.1,56.1,0,0,0-6.7-1.13c-2.44-.28-4.88-.42-7.34-.48-2,0-4.05,0-6.07.11-.67,0-1.34.09-2,.13a28.3,28.3,0,0,0,0,4.87l.7-.05c1.38-.1,2.75-.2,4.12-.28a55.49,55.49,0,0,1,5.91.07,50.17,50.17,0,0,1,5.73.62A29.71,29.71,0,0,1,45,36.35a11.38,11.38,0,0,1,2,1,4.92,4.92,0,0,1,1.19,1,2,2,0,0,1,0,2.82,5.14,5.14,0,0,1-1.28,1.09A14.76,14.76,0,0,1,43,44c.23-.11.47-.21.7-.33a7.14,7.14,0,0,0,1.83-1.17,4.41,4.41,0,0,0,.78-.89,1.93,1.93,0,0,0,0-2.18,3.93,3.93,0,0,0-1-1,10.92,10.92,0,0,0-2.75-1.49,25.66,25.66,0,0,0-5-1.38c-1.35-.23-2.7-.43-4.05-.59a55.32,55.32,0,0,0-7.28-.28c-1.34,0-2.66.13-4,.2l-.19,0a2.46,2.46,0,0,0,0,.26c.06,1,.11,2,.2,3.06s.2,2.21.34,3.32A44.57,44.57,0,0,0,25.08,52a15,15,0,0,0,1.73,3.26,6.17,6.17,0,0,0,1.41,1.43,2.81,2.81,0,0,0,1.75.58,2.75,2.75,0,0,0,1.37-.42,5.43,5.43,0,0,0,1.55-1.47,13.24,13.24,0,0,0,1.53-2.69,2.18,2.18,0,0,1,.23-.42v.1a24,24,0,0,1-1.9,4.67,8.71,8.71,0,0,1-1.59,2.13,3.49,3.49,0,0,1-1.73,1,2.6,2.6,0,0,1-1.81-.32,4.53,4.53,0,0,1-1.21-1,9.85,9.85,0,0,1-1.37-2,25.29,25.29,0,0,1-2-5.13,47.14,47.14,0,0,1-1.33-6.46c-.22-1.68-.43-3.38-.57-5.08C21.05,38.6,21,37,21,35.47c0-.14,0-.28,0-.47a38.21,38.21,0,0,0-4,.61c0,.17,0,.31,0,.45.08,1.47.13,2.95.25,4.42a67.08,67.08,0,0,0,2,12,30.35,30.35,0,0,0,2.22,6,.12.12,0,0,1,0,.1l-.21-.28A20.08,20.08,0,0,1,19,54a45.14,45.14,0,0,1-1.84-6.77c-.43-2.14-.75-4.29-1-6.46-.15-1.45-.24-2.92-.36-4.37,0-.18,0-.35-.06-.57a24.32,24.32,0,0,0-4.54,1.47,16.73,16.73,0,0,1,4.52-1.87l-.12-5.2a1.46,1.46,0,0,0-.21,0,37.77,37.77,0,0,0-7.51,2.11A12.76,12.76,0,0,0,5.09,33.9,9.83,9.83,0,0,0,3.91,35a3.58,3.58,0,0,0-.57.81,2.49,2.49,0,0,0,0,2.44,4.81,4.81,0,0,0,1.18,1.4A11,11,0,0,0,7,41.15c.41.2.84.37,1.26.56a1.18,1.18,0,0,1,.29.16.39.39,0,0,1-.15,0,26.24,26.24,0,0,1-4.69-1.76,10.08,10.08,0,0,1-2.18-1.42,10.05,10.05,0,0,1-.93-1,2.62,2.62,0,0,1-.51-1.21A2.59,2.59,0,0,0,0,36.07Zm21-6.45a27.71,27.71,0,0,0-4,.5c-.08.39-.09,4.66,0,5.1l2-.39,2-.34Zm-4-1,4.1-.37.24-3c-1.42.12-2.78.3-4.17.53Z"/></g></g></svg>